<?xml version="1.0" encoding="utf-8"?>
<!-- Generator: Adobe Illustrator 24.3.0, SVG Export Plug-In . SVG Version: 6.00 Build 0)  -->
<svg version="1.1" id="Laag_1" xmlns="http://www.w3.org/2000/svg" xmlns:xlink="http://www.w3.org/1999/xlink" x="0px" y="0px"
	 viewBox="0 0 276.2 173.6" style="enable-background:new 0 0 276.2 173.6;" xml:space="preserve">
<style type="text/css">
	.st0{fill:#92616D;}
</style>
<path class="st0" d="M113.7,163.8c6.4,6.1,15,9.8,24.4,9.8c10.2,0,19.4-4.3,25.8-11.2L265.7,60.6c6.5-6.4,10.5-15.3,10.5-25.2
	c0-19.6-15.9-35.4-35.4-35.4c-9.8,0-18.6,4-25,10.4l0,0L138,88.1L60.5,10.6l0,0c-6.4-6.4-15.3-10.4-25-10.4C15.9,0.2,0,16.1,0,35.7
	c0,9.9,4,18.8,10.5,25.2l103,103L113.7,163.8z"/>
</svg>
