<svg width="168" height="81" viewBox="0 0 168 81" fill="none" xmlns="http://www.w3.org/2000/svg">
<path d="M93.8799 48.4893V48.605L93.9934 48.7207C93.9934 48.7207 93.9934 48.8364 94.107 48.8364C94.4476 49.2992 94.9018 49.8777 95.356 49.9933C96.1508 50.3404 97.1728 49.762 97.0592 49.4149C97.0592 49.2992 96.9457 49.1835 96.9457 49.0678C96.8321 48.9521 96.8321 48.7207 96.605 48.4893C96.3779 48.1422 96.0373 47.5637 95.8102 46.7539V46.8696C95.8102 46.8696 95.6967 46.8696 95.6967 46.7539V46.6382C95.2425 45.2498 94.7883 43.1673 94.7883 40.0435C94.7883 39.1179 94.9018 37.3825 94.9018 37.3825C94.9018 37.1511 95.0154 36.804 95.0154 36.5726L95.356 34.4901C95.4696 34.3744 95.6966 34.2587 95.8102 34.143C96.605 33.4488 97.5134 32.4076 97.9676 31.7134C98.4218 31.0192 99.3302 29.978 99.3302 29.978C99.3302 29.8623 99.4437 29.8623 99.4437 29.7466C99.5573 29.5152 99.7844 29.1681 100.011 28.821C100.466 28.1268 100.806 27.2013 101.147 26.6228C101.147 26.6228 101.147 26.5071 101.26 26.2757C101.374 26.16 101.374 26.0443 101.487 25.8129C101.601 25.5815 101.715 25.3501 101.828 25.003C101.942 24.5403 102.623 22.8048 102.85 20.9537C102.964 19.3339 102.85 18.8712 102.737 18.4084C102.623 17.9456 102.055 17.3671 101.715 17.1357C101.601 17.02 101.374 17.02 101.26 17.02C101.147 17.02 101.147 17.02 101.033 17.02C100.92 17.02 100.92 17.02 100.806 17.02C100.466 17.02 100.125 17.1357 99.8979 17.2514C99.6708 17.3671 99.4437 17.4828 99.3302 17.7142C98.9895 17.9456 98.7624 18.2927 98.5353 18.5241C98.3083 18.7555 98.0812 19.1025 97.9676 19.3339C96.9457 20.838 96.1508 22.6891 95.4695 24.5403C94.7883 26.3914 94.3341 28.4739 93.8799 30.325C93.7663 30.7878 93.3121 34.4901 93.1986 34.9529C93.1986 34.9529 92.9715 36.804 92.858 37.6139C92.858 37.6139 92.858 37.8453 92.858 38.3081C92.4038 42.0103 91.7225 44.3242 90.8141 45.8283C90.4734 46.1754 89.9057 46.6382 89.338 46.8696C88.316 47.3323 87.8618 47.2166 87.7483 47.2166C87.2941 47.1009 87.067 46.4068 86.8399 45.944C86.7264 45.4812 86.6128 44.6713 86.4993 43.9772C86.4993 43.7458 86.4993 43.6301 86.4993 43.3987V42.8202C86.4993 42.4731 86.4993 42.0103 86.4993 41.6632C86.4993 40.9691 86.6128 40.3906 86.6128 40.0435V39.9278C86.7264 39.465 86.7264 39.0022 86.8399 38.5395C87.1806 36.6883 87.7483 35.1843 87.5212 34.8372C87.2941 34.4901 87.6347 34.0273 86.9535 34.2587C86.4993 34.3744 86.1586 34.7215 85.818 35.0686C85.5909 35.3 85.3638 35.4157 85.3638 35.5314C85.0232 36.1098 84.7961 36.804 84.569 37.4982C84.569 37.4982 84.569 37.4982 84.569 37.6139C84.4554 37.8453 84.4554 38.3081 84.4554 38.3081C84.3419 38.7708 84.3419 39.1179 84.2283 39.5807C83.8877 40.2749 83.8877 40.622 83.8877 41.0848C83.8877 41.5475 84.0012 43.5144 84.0012 43.6301C84.0012 43.6301 84.1148 43.9772 84.1148 44.0929C84.2283 44.9027 84.4554 45.5969 84.7961 46.4068C85.2503 47.5637 86.1586 48.8364 87.6348 48.8364C88.5431 48.8364 89.7922 48.0265 89.7922 47.9108C90.9276 47.101 91.9496 45.8283 92.7444 43.8615C92.9715 46.1754 93.4257 47.6794 93.8799 48.4893ZM95.356 48.7207C95.356 48.605 95.356 48.7207 95.356 48.7207C95.2425 48.4893 95.2425 48.1422 95.2425 48.3736H95.356C95.356 48.4893 95.356 48.605 95.356 48.7207ZM95.5831 48.605C95.5831 48.4893 95.5831 48.2579 95.5831 48.1422C95.5831 48.2579 95.8102 48.4893 95.5831 48.605ZM96.605 48.605C96.7186 48.605 96.7186 48.8364 96.8321 48.7207C96.8321 48.8364 96.8321 48.9521 96.9457 49.0678L97.0592 49.2992C96.9457 49.2992 96.9457 49.2992 96.9457 49.1835V49.0678C96.7186 49.1835 96.8321 48.9521 96.7186 48.9521C96.605 48.8364 96.7186 48.4893 96.605 48.2579C96.605 48.4893 96.4915 48.3736 96.605 48.605ZM96.2644 48.9521C96.3779 48.9521 96.3779 48.9521 96.2644 48.9521C96.4915 49.0678 96.3779 49.0678 96.2644 48.9521L96.1508 48.7207H96.2644C96.3779 48.8364 96.3779 48.8364 96.2644 48.9521ZM96.2644 47.9108C96.2644 48.0265 96.3779 48.1422 96.3779 48.3736L96.2644 48.2579L96.3779 48.605C96.3779 48.605 96.3779 48.605 96.2644 48.605V48.4893V48.3736C96.1508 48.0265 96.1508 47.7951 96.1508 47.6794C96.1508 47.6794 96.1508 47.5637 96.2644 47.9108ZM95.5831 46.8696C95.5831 46.8696 95.6967 46.9853 95.5831 46.8696C95.6967 47.1009 95.6967 47.1009 95.6967 47.1009C95.6967 47.1009 95.5831 47.1009 95.5831 46.8696C95.5831 46.9853 95.5831 46.8696 95.5831 46.8696ZM95.5831 47.3323C95.5831 47.3323 95.6967 47.3323 95.6967 47.448C95.6967 47.448 95.6966 47.9108 95.8102 47.7951C95.9237 47.9108 95.8102 47.9108 95.9237 48.1422V48.2579C96.0373 48.2579 96.1508 48.605 96.0373 48.8364C95.9237 48.4893 95.6966 47.7951 95.8102 47.9108C95.6966 47.6794 95.6967 47.448 95.6967 47.7951C95.5831 47.5637 95.5831 47.3323 95.5831 47.3323ZM95.4695 48.7207C95.4695 48.605 95.4695 48.4893 95.4695 48.2579C95.5831 48.3736 95.5831 48.605 95.4695 48.7207ZM95.4695 47.5637C95.356 47.5637 95.2425 46.9853 95.356 46.9853C95.2425 46.9853 95.6966 47.5637 95.4695 47.5637ZM95.2425 46.2911C95.2425 46.1754 95.356 46.1754 95.356 46.1754C95.356 46.2911 95.356 46.8696 95.356 46.7539C95.356 46.7539 95.2425 46.7539 95.2425 46.6382L95.356 46.5225C95.2425 46.5225 95.2425 46.5225 95.2425 46.2911ZM95.0154 45.2498C95.0154 45.3655 95.0154 45.4812 95.0154 45.4812H95.1289C95.2425 45.5969 95.1289 45.5969 95.1289 45.7126L95.0154 45.5969C94.9018 45.5969 95.0154 45.4812 95.0154 45.2498ZM98.0812 29.8623C98.0812 29.8623 97.9676 29.8623 98.0812 29.8623C98.0812 29.7466 98.0812 29.7466 98.0812 29.7466C98.0812 29.7466 98.0812 29.7466 98.0812 29.8623ZM97.1728 26.16C97.627 24.4246 98.3082 22.8048 98.876 21.1851C99.2166 20.3752 99.5573 19.681 100.011 18.9868C100.238 18.6398 100.466 18.4084 100.693 18.2927C100.693 18.2927 100.806 18.2927 100.806 18.177C100.92 18.177 100.92 18.177 101.033 18.177C101.147 18.177 101.26 18.2927 101.26 18.5241C101.374 18.7555 101.374 18.9868 101.374 19.1025V19.2182V19.3339C101.374 19.4496 101.374 19.5653 101.374 19.681C101.374 19.9124 101.374 20.0281 101.26 20.2595C101.26 20.4909 101.147 20.7223 101.147 20.838C101.147 21.0694 101.033 21.3008 101.033 21.4165C100.92 21.8792 100.806 22.2263 100.693 22.6891C100.579 22.9205 100.579 23.1519 100.466 23.3833C100.352 23.6147 100.352 23.8461 100.238 24.0775C99.5573 25.8129 98.7624 27.4326 97.8541 28.821C97.627 29.1681 97.3999 29.5152 97.2863 29.7466C97.0592 29.978 96.9457 30.325 96.8321 30.5564C96.605 31.0192 96.3779 31.2506 96.3779 31.2506C96.1508 31.5977 95.9237 31.9448 96.2644 31.7134C96.3779 31.5977 96.3779 31.5977 96.4915 31.482C96.4915 31.482 96.605 31.3663 96.4915 31.3663C96.605 31.2506 96.8321 31.1349 96.9457 30.9035C96.9457 30.9035 96.9457 30.9035 96.9457 31.0192C97.0592 30.9035 97.1728 30.6721 97.3999 30.5564C97.627 30.325 97.7405 30.0937 97.8541 29.978C97.7405 29.978 97.8541 30.0937 97.7405 29.978C97.7405 30.0937 97.7405 30.0937 97.7405 30.0937H97.627L97.7405 29.978C97.8541 29.8623 97.9676 29.7466 98.1947 29.5152L98.3082 29.3995L98.1947 29.5152C98.3082 29.3995 98.4218 29.1681 98.4218 29.1681C98.4218 29.1681 98.4218 29.2838 98.5353 29.1681L98.6489 29.0524V29.1681C98.5353 29.2838 98.5353 29.2838 98.4218 29.3995C98.4218 29.3995 98.4218 29.3995 98.5353 29.3995C98.6489 29.3995 98.5353 29.5152 98.5353 29.5152C98.5353 29.6309 98.4218 29.6309 98.3082 29.7466C98.1947 29.8623 98.0812 30.0937 97.8541 30.325V30.4407C97.8541 30.4407 97.9676 30.4407 97.9676 30.325C97.9676 30.4407 97.8541 30.4407 97.8541 30.4407C97.8541 30.5564 97.7405 30.7878 97.627 30.9035C97.5134 31.2506 97.2863 31.5977 97.1728 31.7134C97.1728 31.8291 97.0592 32.0605 96.8321 32.2919C96.7186 32.5233 96.4915 32.8704 96.2644 33.1017C96.1508 33.3331 95.9237 33.5645 95.8102 33.6802C95.9237 31.2506 96.4915 28.5896 97.1728 26.16ZM97.8541 29.3995L97.7405 29.5152V29.3995C97.7405 29.3995 97.8541 29.2838 97.8541 29.3995C97.9676 29.2838 97.9676 29.3995 97.8541 29.3995ZM95.1289 35.4157C95.1289 35.6471 95.0154 35.8784 95.0154 36.1098C95.1289 35.8784 95.1289 35.6471 95.1289 35.4157ZM94.5612 44.9027C94.5612 45.1341 94.6747 45.2498 94.6747 45.3655C94.5612 45.3655 94.5612 45.3655 94.5612 45.3655C94.4476 45.1341 94.4476 45.2498 94.4476 45.1341C94.4476 45.1341 94.4476 45.1341 94.4476 45.0184C94.5612 45.0184 94.5612 44.9027 94.5612 44.9027ZM94.3341 43.6301C94.4476 43.7458 94.4476 43.9772 94.4476 43.9772C94.3341 43.8615 94.3341 43.8615 94.3341 43.6301C94.2205 43.7458 94.3341 43.7458 94.3341 43.6301Z" fill="black"/>
<path d="M86.0446 31.1351C86.2717 31.3665 86.7259 31.5979 87.1801 31.7136C87.8614 31.8293 88.7698 30.9037 88.6562 30.0939C88.5427 29.7468 88.3156 29.284 87.9749 29.0526C87.2936 28.8212 84.9091 30.5566 86.0446 31.1351Z" fill="black"/>
<path d="M113.637 34.7215C112.842 34.6058 112.615 35.6471 112.388 36.2256C111.253 38.8866 109.89 43.283 108.641 46.1754C108.754 45.2499 108.868 40.7377 109.776 37.4982C110.458 36.2256 111.253 34.1431 110.117 34.2588C109.776 33.9117 109.549 34.1431 108.982 34.2588C108.868 34.2588 108.868 34.1431 108.414 34.9529C107.619 36.8041 105.916 45.3656 107.165 47.5638C107.505 48.0266 107.619 48.1423 108.187 48.1423C110.004 48.258 111.253 43.1673 111.934 41.0848C111.934 42.8203 111.253 47.7952 112.274 48.9521C112.274 48.8364 112.615 48.9521 112.615 48.9521C112.729 48.9521 112.729 49.0678 112.729 49.0678C112.729 48.9521 112.842 48.8364 113.183 49.0678C113.183 49.0678 113.296 48.9521 113.296 48.8364C113.524 48.9521 113.41 48.8364 113.637 48.6051C113.637 48.6051 113.978 48.8364 113.978 48.7207C112.729 44.7871 115.227 35.3 113.637 34.7215Z" fill="black"/>
<path d="M123.175 32.5235C121.472 31.7137 118.633 32.0608 117.952 35.0688C117.611 36.3415 117.952 38.424 118.406 40.3909C119.314 44.0931 119.882 46.8698 117.043 46.407C116.249 45.9443 115.908 46.2913 116.476 46.8698C117.27 47.7954 119.428 48.2582 120.563 46.8698C121.245 46.06 121.472 44.6716 121.358 43.0519C121.245 42.1263 121.018 40.9693 120.677 39.6967C119.882 36.4572 119.201 33.102 122.721 32.8706C122.948 32.8706 123.175 33.102 123.402 32.9863C123.516 32.9863 123.402 32.6392 123.175 32.5235Z" fill="black"/>
<path d="M146.566 44.7871V44.6714V45.0185C146.566 45.0185 146.566 45.0185 146.452 45.0185V44.9028C146.452 44.9028 146.452 44.7871 146.452 44.9028C146.452 44.5557 146.452 44.3243 146.566 44.0929C146.68 44.0929 146.68 44.0929 146.68 44.0929C146.68 43.9772 146.68 43.8616 146.68 43.7459V43.6302C146.68 43.5145 146.68 43.3988 146.68 43.2831C146.68 43.1674 146.68 43.0517 146.68 42.936L146.566 43.0517C146.566 42.936 146.566 42.5889 146.566 42.7046H146.68V42.5889C146.68 42.5889 146.68 42.5889 146.68 42.7046C146.793 41.6633 146.793 40.6221 146.793 39.6965C146.68 33.2175 142.251 34.4902 139.526 39.118C140.662 32.1763 141.116 27.8955 142.024 20.8381C142.251 19.334 142.478 18.4085 141.797 18.2928C139.753 18.1771 139.64 20.0282 139.412 21.6479C138.618 27.5484 137.823 32.8704 137.142 38.0768C137.028 38.0768 137.028 38.1925 136.914 38.1925C136.687 38.1925 136.574 38.1925 136.46 38.4238C133.054 43.6302 130.215 45.597 127.831 45.597C126.809 45.597 126.014 45.0185 126.014 43.8616C126.014 40.3907 130.329 34.4902 131.464 35.5315C131.918 35.9942 133.054 36.3413 133.508 34.953C133.735 34.2588 132.259 33.4489 131.464 33.3332C128.853 33.1018 123.97 39.118 123.97 43.6302C123.97 48.4894 130.783 49.6464 136.914 40.9692C136.687 42.8203 136.46 44.7871 136.233 46.6383C136.12 47.2167 136.12 47.6795 136.233 48.0266C136.233 48.258 136.574 48.1423 136.801 48.1423H136.914C137.028 47.9109 137.255 48.0266 137.255 47.6795L137.142 47.7952C137.142 47.6795 137.142 47.5638 137.255 47.4481C137.255 47.5638 137.255 47.4481 137.369 47.5638V47.4481C137.369 47.5638 137.482 47.2167 137.482 47.4481C137.482 47.2167 137.596 47.4481 137.596 47.3324C137.596 47.101 137.709 47.101 137.709 47.3324C137.709 47.4481 137.823 47.3324 137.823 47.3324C137.823 47.3324 137.936 47.2167 138.05 47.2167C138.391 47.101 138.05 47.101 138.391 47.101C138.391 47.2167 138.504 47.4481 138.504 47.3324C138.504 47.3324 138.618 46.2912 138.618 46.1755C139.185 42.936 141.116 37.9611 144.068 36.457C145.317 38.5395 144.409 42.936 144.295 45.2499C144.295 46.4069 144.181 46.2912 144.522 46.6383C144.863 46.2912 144.863 46.8696 145.09 46.5226C145.203 46.2912 145.317 46.0598 145.431 46.4069C145.431 46.4069 145.544 46.4069 145.544 46.2912C145.658 46.4069 146.112 46.1755 146.225 46.2912C146.225 46.6383 146.339 46.2912 146.339 45.9441C146.339 45.4813 146.339 45.0185 146.339 44.5557C146.566 44.6714 146.566 44.6714 146.566 44.7871ZM146.566 42.936C146.566 43.0517 146.566 43.1674 146.566 43.1674C146.566 43.1674 146.566 43.1674 146.566 43.0517C146.452 43.0517 146.566 42.936 146.566 42.936ZM146.339 41.4319C146.339 41.5476 146.225 41.6633 146.225 41.6633H146.339C146.339 41.779 146.339 41.779 146.339 41.8947V41.779C146.112 41.6633 146.225 41.5476 146.339 41.4319ZM146.112 42.4732C146.112 42.3575 146.225 42.3575 146.339 42.3575C146.339 42.4732 146.112 42.936 146.112 42.936L145.998 42.8203L146.112 42.7046C146.112 42.7046 146.112 42.7046 146.112 42.4732ZM146.112 39.6965C146.112 39.8122 146.112 40.0436 146.112 40.0436C145.998 39.9279 145.998 39.9279 146.112 39.6965C146.112 39.8122 146.112 39.6965 146.112 39.6965ZM145.885 41.0849V40.9692V40.8535V40.9692C145.885 41.2006 145.885 41.3162 145.885 41.4319C145.771 41.4319 145.771 41.4319 145.771 41.4319C145.885 41.2005 145.885 41.2006 145.885 41.0849ZM145.544 44.7871C145.544 44.5557 145.544 44.2086 145.544 44.44C145.544 44.44 145.544 44.44 145.658 44.5557C145.544 44.6714 145.544 44.7871 145.544 44.7871ZM145.771 44.7871C145.771 44.6714 145.771 44.5557 145.885 44.3243C145.771 44.5557 145.771 44.7871 145.771 44.7871ZM145.771 44.7871C145.885 44.6714 145.885 44.44 145.885 44.3243C145.885 44.44 146.112 44.7871 145.771 44.7871ZM145.998 43.7459C145.885 43.6302 145.885 43.1674 146.112 43.1674C145.998 43.1674 146.225 43.7459 145.998 43.7459ZM146.225 44.2086C146.225 44.3243 146.225 44.3243 146.225 44.5557C146.225 44.5557 146.225 44.6714 146.112 44.6714C146.225 44.7871 146.112 45.1342 146.112 45.2499C146.112 44.9028 146.112 44.2086 146.112 44.3243C146.112 44.0929 146.112 43.8616 146.112 44.2086C146.112 43.9773 146.225 43.7459 146.225 43.7459C146.225 43.7459 146.339 43.7459 146.339 43.8616C146.339 43.8616 146.112 44.2086 146.225 44.2086ZM146.339 43.1674V43.2831C146.339 43.3988 146.339 43.3988 146.339 43.3988C146.339 43.3988 146.339 43.2831 146.339 43.1674ZM146.339 45.3656C146.339 45.3656 146.452 45.3656 146.339 45.3656C146.452 45.4813 146.339 45.4813 146.339 45.4813V45.3656V45.1342H146.452C146.452 45.2499 146.452 45.2499 146.339 45.3656Z" fill="black"/>
<path d="M167.913 30.5565C167.799 30.4408 167.459 30.0937 167.232 29.978C165.756 29.3995 162.349 32.7547 160.532 36.1099C159.51 38.0767 158.488 40.3907 158.261 42.3575C156.445 41.0848 154.174 39.0023 153.265 37.4983C152.357 35.8785 156.104 33.9117 156.785 33.2175C156.672 33.2175 156.445 33.3332 156.331 33.3332C156.218 33.3332 156.785 32.8704 156.785 32.9861C156.785 32.8704 156.899 32.8704 156.899 32.7547H156.785C157.239 32.2919 157.58 32.2919 157.921 31.8292C158.148 31.7135 158.375 31.5978 158.716 31.3664H158.602C158.261 31.5978 158.488 31.3664 158.488 31.3664H158.829L158.716 31.2507H158.602C158.602 31.2507 158.488 31.3664 158.375 31.3664L158.261 31.4821C158.261 31.4821 158.148 31.5978 158.034 31.5978C158.034 31.7135 157.921 31.7135 157.921 31.7135H157.694C157.807 31.4821 158.148 31.4821 158.488 31.3664C158.488 31.3664 158.488 31.3664 158.488 31.2507C158.602 31.2507 158.602 31.2507 158.602 31.2507C158.602 31.3664 158.716 31.135 158.716 31.135C158.716 31.2507 158.829 31.135 158.829 31.135C158.943 31.135 158.943 31.135 158.943 31.2507C158.943 31.2507 159.283 31.135 159.283 31.0193C159.283 31.0193 159.397 31.0193 159.397 30.9036C159.283 31.0193 159.17 30.9036 159.17 31.0193H159.056V30.9036C158.829 30.6722 158.375 31.0193 158.716 30.7879C158.943 30.6722 159.056 30.6722 159.056 30.6722C159.056 30.6722 159.056 30.6722 159.056 30.7879C159.056 30.7879 159.056 30.7879 159.17 30.7879C159.056 30.7879 159.056 30.7879 159.056 31.0193C159.056 30.9036 159.283 30.7879 159.397 30.6722C159.397 30.6722 159.624 30.5565 159.51 30.5565C159.17 30.7879 159.17 30.6722 159.056 30.6722C159.17 30.6722 159.51 30.5565 159.624 30.4408C159.738 30.3251 159.51 30.3251 159.51 30.3251C159.624 30.0937 160.078 30.2094 159.965 30.0937C159.965 30.0937 159.965 30.0937 160.078 30.0937C160.078 30.0937 160.987 29.6309 161.214 29.2838C160.759 29.1681 160.192 29.2838 159.738 29.2838C158.488 29.3995 158.375 29.7466 157.921 29.7466C156.785 30.4408 154.06 32.4076 153.265 32.9861C153.606 30.2094 154.174 27.6641 154.401 25.0031C154.401 24.4246 154.401 23.7304 153.833 23.6147C153.038 23.9618 153.606 23.499 152.925 24.0775C152.47 24.656 152.243 25.2345 152.13 25.813C150.881 31.5978 149.972 37.614 149.518 43.1674C149.518 44.6714 149.518 48.7208 149.972 48.7208C149.972 48.6051 149.972 48.4894 149.972 48.3737C149.972 48.3737 149.972 48.1423 149.859 48.0266V47.7952V47.6795V47.5638C149.859 47.5638 149.859 47.4481 149.972 47.3324C150.086 47.7952 150.086 48.258 150.313 48.4894C150.313 48.4894 150.313 48.258 150.427 48.1423C150.427 48.258 150.54 48.3737 150.54 48.4894C150.654 47.9109 150.427 48.1423 150.654 47.9109V47.7952C150.654 47.7952 150.654 47.6795 150.767 47.7952C150.767 47.6795 150.767 47.6795 150.881 47.5638C151.221 47.6795 151.108 47.6795 151.221 47.4481L151.335 47.3324C151.562 46.1755 151.903 41.3162 152.13 40.3907C152.811 41.0848 155.082 43.5144 155.877 43.3987L156.331 43.6301C156.331 43.6301 156.445 43.6301 156.672 43.6301C156.785 43.9772 156.899 43.8615 157.126 43.7458V43.6301C157.126 43.6301 157.126 43.7458 157.239 43.7458C157.126 43.6301 157.239 43.6301 157.239 43.6301C157.467 43.5144 157.58 43.5144 157.58 43.5144C157.58 43.5144 157.807 43.3988 157.694 43.2831C157.694 43.2831 157.694 43.2831 157.807 43.2831C157.807 43.5144 157.807 43.8615 157.807 44.0929C157.921 45.3656 158.488 45.7127 159.17 45.597C162.122 45.2499 163.939 39.2337 164.847 37.614C164.847 38.0767 164.847 38.7709 164.734 39.6965C164.734 39.8122 164.734 40.0436 164.847 40.1593C164.847 40.3907 164.961 40.1593 164.847 40.0436H164.961C164.961 40.1593 165.074 40.3907 164.961 40.5063C164.847 40.7377 165.074 40.622 165.074 40.3907C165.074 40.622 165.074 40.7377 165.074 40.7377C164.961 40.8534 164.961 41.8947 165.074 41.4319C165.188 41.4319 165.074 41.5476 165.074 41.5476L164.961 41.8947C164.961 42.0104 164.961 42.2418 164.961 42.3575C164.961 42.3575 165.188 42.1261 164.961 42.4732H165.074C165.188 42.7046 164.961 42.8203 164.961 43.0517C164.847 43.0517 164.961 43.0517 164.847 43.0517C164.847 42.5889 164.961 42.0104 164.961 41.3162C164.961 41.2005 164.961 40.9691 164.847 40.7377V40.275V40.1593C164.847 41.2005 164.847 42.3575 164.847 43.3987C164.961 43.3987 164.847 43.2831 164.847 43.2831C164.961 43.2831 165.074 43.2831 165.074 43.1674C165.188 43.1674 165.188 43.2831 165.188 43.2831V43.3987C165.074 43.3987 165.074 43.1674 165.074 43.3987C164.961 43.3987 164.961 43.7458 165.074 43.7458C164.961 43.7458 164.961 43.9772 165.074 44.0929C164.961 43.9772 165.074 43.9772 164.961 43.9772C164.961 43.9772 164.961 44.5557 164.961 44.6714C164.961 44.7871 164.961 44.9028 164.961 45.0185C164.961 45.0185 164.847 44.7871 164.961 44.44C165.074 45.4813 165.188 46.4068 165.301 47.101C165.415 46.9853 165.756 47.3324 165.756 47.3324C165.756 47.3324 165.983 47.4481 166.096 47.2167C166.096 47.9109 166.891 47.3324 166.777 47.2167L167.005 47.3324C167.005 47.3324 167.005 47.2167 167.118 46.8696L167.345 46.9853L167.459 46.7539C167.005 43.3988 167.459 35.7628 167.345 31.0193C167.913 31.135 168.14 30.9036 167.913 30.5565ZM158.716 31.0193C158.716 30.9036 158.829 30.9036 158.943 30.9036C158.943 30.9036 159.056 30.9036 159.056 30.7879C159.056 30.7879 159.056 30.7879 159.17 30.7879C159.17 30.7879 158.829 31.0193 158.602 31.0193C158.488 31.2507 158.716 31.0193 158.716 31.0193ZM157.807 31.9449C157.921 31.9449 158.034 31.8292 158.148 31.7135C158.034 31.8292 157.807 31.9449 157.58 32.1762C157.467 32.0605 157.694 32.0605 157.807 31.9449ZM166.096 43.3987C166.096 43.2831 166.096 43.0517 166.096 42.8203C165.983 42.8203 166.096 42.936 166.096 42.936C166.096 43.0517 166.096 43.1674 165.983 43.3987C165.983 43.2831 165.983 43.1674 165.869 43.1674C165.869 43.2831 165.869 43.2831 165.869 43.3987V43.5144C165.869 43.5144 165.983 43.6301 165.983 43.7458C165.869 43.6301 165.983 43.7458 165.869 43.7458V43.6301C165.756 43.2831 165.869 42.5889 165.869 42.2418C165.983 42.2418 165.869 42.1261 165.869 42.0104C165.869 42.2418 165.869 42.3575 165.869 42.5889C165.869 42.5889 165.869 42.5889 165.869 42.7046C165.983 42.5889 165.983 42.3575 165.869 42.2418C165.983 42.1261 165.869 42.0104 165.983 41.779C165.983 41.6633 166.096 41.6633 166.096 41.5476V42.3575C166.096 42.2418 166.096 42.0104 166.21 41.8947C166.323 42.1261 166.096 43.0517 166.096 43.3987ZM165.983 40.0436C165.983 39.9279 165.983 39.6965 165.983 39.4651C166.096 39.4651 166.096 39.3494 166.096 39.4651C165.983 40.0436 165.869 40.0436 166.21 40.0436L166.096 40.7377C166.096 40.7377 166.096 40.5064 166.096 40.3907C166.096 40.5064 165.983 40.622 165.983 40.7377C165.983 40.8534 165.869 40.8534 165.983 40.8534C165.983 40.9691 165.869 40.9691 165.869 40.9691C165.869 40.9691 165.869 40.9691 165.983 41.0848C165.983 41.2005 165.983 41.3162 165.983 41.3162C165.983 41.4319 165.869 41.4319 165.869 41.5476C165.756 41.4319 165.869 41.4319 165.869 41.4319V39.6965C165.869 39.9279 165.869 40.1593 165.983 40.0436ZM164.847 34.8373C163.598 37.3826 161.441 42.3575 159.851 43.9772C159.624 42.936 162.69 34.6059 165.869 32.0605C165.756 32.4076 165.415 33.6803 164.847 34.8373ZM165.756 44.3243C165.756 44.3243 165.756 44.3243 165.756 44.2086C165.756 44.0929 165.756 44.3243 165.756 44.3243C165.869 44.3243 165.756 44.3243 165.756 44.2086C165.869 44.2086 165.869 44.3243 165.869 44.2086C165.869 44.3243 165.983 44.44 165.756 44.6714V44.5557C165.756 44.44 165.756 44.3243 165.756 44.3243ZM165.869 45.7127C165.869 45.4813 165.756 45.2499 165.983 45.1342C165.983 45.3656 165.983 45.597 165.869 45.7127ZM166.096 44.3243C166.096 44.44 166.096 44.6714 166.096 44.7871C165.869 44.5557 166.096 44.44 166.096 44.3243ZM166.096 46.6382C165.983 46.6382 165.983 46.5225 166.096 46.4068C166.096 46.6382 166.096 46.6382 166.21 46.5225L166.096 46.6382ZM166.323 45.597C166.323 45.4813 166.21 45.0185 166.21 45.0185C166.21 45.0185 166.21 45.1342 166.323 45.0185C166.21 45.2499 166.323 45.4813 166.323 45.597ZM166.323 43.0517C166.323 42.936 166.323 42.8203 166.437 42.7046H166.55C166.437 43.2831 166.437 43.0517 166.323 43.0517Z" fill="black"/>
<path d="M102.736 29.8623C102.396 30.0937 102.055 30.3251 101.942 30.5565C101.714 30.7879 101.714 30.9036 101.714 31.2506C101.714 31.5977 102.396 31.5977 102.509 31.7134C102.736 32.2919 104.326 31.9448 104.213 31.3663C104.326 30.9036 104.213 30.7879 104.099 30.3251C103.758 29.7466 103.304 29.5152 102.736 29.8623Z" fill="black"/>
<path d="M101.828 35.1843C101.147 36.1098 100.92 37.3825 100.806 38.4237C99.5574 45.7126 99.4438 65.9594 90.9277 68.2733C91.1548 68.389 91.2683 68.5047 91.609 68.389C91.7225 68.389 91.609 68.5047 91.609 68.6204C101.147 66.4222 102.169 47.6794 103.191 39.9278C103.304 39.3493 103.418 38.8865 103.418 38.308C103.645 37.2668 103.645 36.3412 103.531 35.3C103.418 34.143 102.396 34.3744 101.828 35.1843Z" fill="black"/>
<path d="M79.7998 52.5387C80.1404 48.6051 79.9133 44.5557 79.3456 40.6221C79.232 39.5808 79.0049 38.5395 78.7778 37.4983V37.3826C78.7778 37.2669 78.6643 37.0355 78.6643 36.9198C78.5507 36.3413 78.3236 35.7628 78.0965 35.3001C77.5288 33.6803 76.9611 32.1763 76.0527 30.6722C75.2578 29.2839 74.3495 27.8955 72.8733 27.0856C71.7379 26.5072 70.3753 26.3915 69.3533 27.2013C68.1043 28.0112 67.3095 29.2839 66.6282 30.5565C65.8334 31.9449 65.2656 33.4489 64.5843 34.953C64.1301 35.8785 63.7895 36.9198 63.2218 37.8454C62.5405 39.118 61.8592 40.275 61.1779 41.4319C60.7237 42.0104 60.3831 42.5889 59.8153 43.1674C59.4747 43.5145 59.0205 43.9772 58.4527 44.0929C57.4308 44.44 56.636 43.0517 56.1818 42.2418C55.5005 40.8535 55.2734 39.2337 54.9328 37.614C54.5921 35.9942 54.365 34.3745 53.7973 32.7547C53.2295 31.2507 52.2076 29.978 50.845 29.2839C49.3689 28.3583 47.5521 28.474 45.9625 29.1682C44.2592 29.8623 42.6696 31.0193 41.1935 32.292C39.8309 33.4489 38.4683 34.7216 37.1057 35.9942C35.1754 37.614 33.2451 39.3494 31.0877 40.8535C29.0438 42.3575 26.8864 43.7459 24.6154 44.7871C24.1613 45.0185 23.8206 45.1342 23.3664 45.3656C23.3664 45.3656 23.2529 45.3656 23.2529 45.4813C23.1393 45.4813 23.1393 45.4813 23.0258 45.4813C22.7987 45.597 22.5716 45.597 22.3445 45.7127C22.458 45.7127 22.6851 45.597 22.6851 45.7127C22.6851 45.7127 22.6851 45.7127 22.6851 45.8284H22.5716C22.5716 45.8284 22.458 45.8284 22.5716 45.8284C22.458 45.8284 22.2309 45.8284 22.1174 45.8284C22.0038 45.8284 21.8903 45.8284 21.8903 45.9441C21.6632 46.0598 21.4361 46.0598 21.209 46.0598H21.3226L21.209 46.1755H21.0955L20.4142 46.2912C20.5277 46.2912 20.9819 46.4069 20.9819 46.4069L20.8684 46.5226L20.7548 46.4069C20.6413 46.5226 20.6413 46.4069 20.5277 46.4069C20.4142 46.4069 20.4142 46.2912 20.4142 46.2912C20.0735 46.4069 19.6193 46.4069 19.2787 46.4069C18.5974 46.5226 17.9161 46.6383 17.1213 46.6383C16.44 45.0185 15.9858 43.6302 15.4181 41.779C15.3045 41.3162 13.7148 37.0355 13.7148 32.9861C13.6013 31.8292 13.7148 30.6722 13.6013 29.5153C13.3742 27.6641 12.8065 26.6229 11.8981 26.1601C10.3084 25.3502 9.05938 26.6229 7.9239 27.7798C1.79231 34.7216 0.883927 39.118 0.543283 40.5064C0.0890908 42.2418 -0.138005 44.0929 0.0890908 45.9441C0.0890908 46.4069 0.202639 46.754 0.316187 47.101C0.429735 47.5638 0.656831 48.0266 0.883926 48.4894C0.883926 48.4894 0.883926 48.4894 0.883926 48.3737C1.56521 49.762 2.58715 50.919 3.60908 52.076C4.17682 52.6544 4.74456 53.2329 5.3123 53.8114C5.42585 53.9271 7.35616 55.6625 8.151 56.0096C8.60519 56.241 10.8761 57.7451 14.9639 59.1334C15.3045 59.2491 17.4619 59.9433 20.1871 60.2904C20.7548 60.4061 25.4103 60.9845 28.0219 60.9845C33.1315 61.1002 37.6735 60.7532 41.7612 60.5218C44.0322 60.2904 48.9147 59.8276 50.845 59.5962C54.9328 59.1334 59.0205 58.4392 63.1082 57.7451C67.6501 56.9352 72.192 56.0096 76.6204 54.737H76.734C76.6204 55.4311 76.5069 56.241 76.2798 56.9352C75.712 59.2491 74.9172 61.4473 73.8953 63.5299C72.9869 65.2653 71.8514 67.0007 70.6024 68.5048C69.4669 69.8931 68.2179 71.0501 66.7417 72.0914C65.4927 73.0169 64.2437 73.8268 62.9947 74.521C61.9727 75.0994 60.8372 75.6779 59.7018 76.1407C59.2476 76.3721 58.9069 76.4878 58.4527 76.7192C57.7715 76.9506 56.9766 77.182 56.1818 77.2977C55.3869 77.5291 54.5921 77.6448 53.7973 77.8761C50.6179 78.5703 47.325 78.8017 44.0322 78.8017C22.1174 78.8017 0.883927 52.423 0.770379 52.1917C0.543283 53.2329 20.1871 80.9999 44.7134 80.9999C47.0979 80.9999 48.347 80.9999 50.7315 80.7685C54.7057 80.3058 58.6798 79.4959 62.3134 77.9918C65.1521 76.8349 67.8772 75.2151 70.2617 73.1326C72.0785 71.5129 73.6682 69.7774 75.0307 67.6949C77.5288 63.6455 79.0049 59.0177 79.6862 54.2742V54.1585C81.2759 53.6957 82.9791 53.2329 84.5688 52.6544C85.5907 52.3074 86.6126 51.9603 87.6346 51.4975H87.7481C86.0449 51.7289 84.4552 51.9603 82.752 52.1917C81.6165 52.3074 80.7081 52.423 79.7998 52.5387ZM23.1393 45.3656C23.2529 45.4813 23.2529 45.4813 23.2529 45.4813L23.3664 45.3656C23.3664 45.3656 23.3664 45.3656 23.48 45.4813H23.3664H23.1393V45.3656ZM22.1174 45.8284C22.2309 45.7127 22.2309 45.8284 22.458 45.8284C22.458 45.8284 22.5716 45.8284 22.5716 45.9441C22.6851 45.8284 23.0258 45.8284 23.1393 45.9441C22.6851 45.8284 22.0038 45.9441 22.1174 45.8284C21.8903 45.9441 21.6632 45.9441 22.0038 45.9441C21.8903 45.9441 21.5497 45.9441 21.5497 45.9441C21.5497 45.9441 21.5497 45.8284 21.6632 45.8284C21.7768 45.8284 22.1174 45.9441 22.1174 45.8284ZM22.5716 46.4069C22.458 46.4069 22.3445 46.4069 22.5716 46.4069V46.2912C22.6851 46.4069 22.7987 46.4069 22.7987 46.2912C22.7987 46.4069 22.6851 46.4069 22.5716 46.4069ZM22.458 46.1755C22.5716 46.1755 22.7987 46.1755 22.9122 46.1755C22.6851 46.2912 22.5716 46.2912 22.458 46.1755ZM22.7987 46.1755C22.6851 46.0598 22.458 46.1755 22.3445 46.0598C22.3445 46.0598 22.6851 45.9441 22.7987 46.1755ZM21.7768 46.1755C21.6632 46.2912 21.209 46.2912 21.209 46.1755C21.209 46.1755 21.209 46.1755 21.3226 46.1755H21.4361C21.5497 46.0598 21.7768 45.9441 21.7768 46.1755ZM19.7329 46.1755C19.8464 46.1755 19.8464 46.1755 19.8464 46.1755C19.8464 46.1755 19.8464 46.1755 19.7329 46.1755C19.7329 46.2912 19.6193 46.2912 19.5058 46.1755H19.7329ZM19.0516 46.5226C19.2787 46.5226 19.3922 46.5226 19.5058 46.4069C19.5058 46.5226 19.5058 46.5226 19.5058 46.5226C19.3922 46.5226 19.3922 46.5226 19.3922 46.5226C19.1651 46.5226 19.0516 46.5226 19.0516 46.5226C18.9381 46.5226 19.0516 46.5226 19.0516 46.5226ZM17.8026 46.6383C17.9161 46.6383 18.0297 46.6383 18.0297 46.6383C17.9161 46.6383 17.9161 46.6383 17.8026 46.6383C17.8026 46.7539 17.689 46.6383 17.689 46.6383C17.8026 46.6383 17.8026 46.6383 17.8026 46.6383ZM6.90197 44.6714C6.90197 44.5557 7.01552 44.5557 7.01552 44.5557C6.90197 44.5557 7.12906 45.2499 6.90197 45.1342C6.78842 45.1342 6.78842 44.9028 6.90197 44.6714ZM7.01552 43.9772C7.01552 43.8616 7.12906 43.8616 7.24261 43.8616C7.24261 43.9772 7.01552 44.44 7.01552 44.44C7.01552 44.44 6.90197 44.44 6.90197 44.3243L7.01552 44.2086C7.01552 44.0929 7.01552 44.0929 7.01552 43.9772ZM7.24261 43.1674C7.24261 43.2831 7.12906 43.3988 7.12906 43.3988H7.24261C7.24261 43.5145 7.24261 43.5145 7.24261 43.6302C7.12906 43.3988 7.24261 43.2831 7.24261 43.1674ZM7.12906 45.9441C7.24261 46.0598 7.24261 46.4069 7.12906 46.5226C7.12906 46.1755 7.12906 45.4813 7.12906 45.597C7.12906 45.3656 7.12906 45.1342 7.12906 45.4813C7.12906 45.3656 7.24261 45.0185 7.24261 45.0185C7.24261 45.0185 7.24261 45.0185 7.35616 45.0185V45.1342C7.35616 45.1342 7.24261 45.597 7.35616 45.4813C7.35616 45.597 7.35616 45.597 7.35616 45.8284C7.12906 45.9441 7.12906 45.9441 7.12906 45.9441ZM7.24261 44.7871V44.6714V44.5557V44.6714C7.24261 44.7871 7.24261 44.7871 7.24261 44.7871ZM7.35616 46.754C7.35616 46.8696 7.35616 46.8696 7.35616 46.754L7.24261 46.4069H7.35616C7.46971 46.6383 7.46971 46.754 7.35616 46.754ZM26.5458 58.5549C26.3187 58.5549 26.0916 58.5549 25.7509 58.5549C22.9122 58.4392 20.8684 57.9765 19.96 57.8608C18.9381 57.7451 17.9161 57.398 16.8942 57.1666C16.3264 57.0509 15.7587 56.8195 15.191 56.7038C14.5097 56.4724 13.7148 56.3567 13.0336 56.0096C12.4658 55.7782 12.0116 55.5468 11.4439 55.1997C11.1032 55.0841 10.8761 54.8527 10.5355 54.737C10.5355 54.737 10.422 54.737 10.422 54.6213L9.96776 53.58C9.05938 51.4975 8.151 49.415 7.6968 47.101V46.9853V46.8696V46.754C7.58326 46.754 7.6968 46.6383 7.58326 46.6383V46.5226C7.58326 46.5226 7.58326 46.5226 7.58326 46.4069V46.2912C7.58326 46.1755 7.58326 46.0598 7.46971 45.8284V45.7127C7.46971 45.7127 7.46971 45.7127 7.46971 45.8284V45.7127V46.0598C7.46971 46.0598 7.46971 46.0598 7.35616 46.0598C7.35616 46.0598 7.35616 45.9441 7.35616 46.0598C7.35616 45.7127 7.35616 45.4813 7.46971 45.2499C7.35616 44.0929 7.46971 42.8203 7.81035 41.779C7.9239 41.3162 8.26454 40.7378 8.60519 40.275C7.9239 40.7378 7.35616 41.4319 6.90197 42.2418C5.99358 43.9772 5.99358 46.0598 6.22068 48.0266C6.33423 49.415 6.56132 50.6876 7.01552 52.076C6.78842 51.9603 6.67487 51.7289 6.56132 51.6132C5.88004 51.0347 5.3123 50.4562 4.74456 49.762C3.94972 48.8365 3.26843 47.6795 2.92779 46.5226C2.70069 45.4813 2.58715 44.5557 2.58715 43.5145C2.58715 42.4732 2.70069 41.3162 3.04134 40.275C4.74456 34.7216 8.151 30.3251 9.40002 28.9368C9.85421 28.3583 10.3084 28.1269 10.7626 28.1269C11.2168 28.1269 11.5574 28.5897 11.7845 28.9368C11.8981 29.1682 11.8981 29.5153 11.8981 29.7467C11.8981 30.0937 11.8981 30.4408 11.8981 30.6722C11.8981 31.2507 11.8981 31.9449 12.0116 32.5234C12.1252 33.796 12.2387 34.953 12.4658 36.2256C12.92 38.7709 13.6013 41.2005 14.5097 43.5145C14.8503 44.3243 15.191 45.2499 15.6452 46.0598C15.4181 46.0598 15.191 46.0598 14.9639 46.0598C14.9639 46.0598 14.3961 46.0598 14.3961 45.9441C14.3961 46.0598 14.6232 46.2912 14.7368 46.4069C15.191 46.7539 15.6452 46.9853 16.2129 47.101C16.2129 47.101 16.2129 47.101 16.3264 47.101C16.3264 47.2167 16.44 47.2167 16.44 47.3324C17.0077 48.4894 19.1651 52.3074 22.6851 55.4311C23.48 56.241 24.5019 56.7038 25.4103 57.2823C25.5238 57.9765 26.0916 58.2078 26.5458 58.5549ZM7.35616 42.4732C7.46971 42.4732 7.46971 42.4732 7.35616 42.4732L7.46971 42.3575V42.2418V42.3575C7.35616 42.5889 7.35616 42.7046 7.35616 42.8203C7.35616 42.5889 7.35616 42.7046 7.35616 42.4732ZM7.58326 41.779C7.58326 41.779 7.58326 41.8947 7.58326 41.779C7.58326 41.8947 7.58326 41.8947 7.46971 41.8947C7.46971 42.0104 7.35616 42.0104 7.35616 42.0104C7.46971 42.0104 7.46971 42.0104 7.58326 41.779C7.58326 41.8947 7.58326 41.8947 7.58326 41.779ZM76.734 53.0015C76.1662 53.1172 75.5985 53.1172 75.0307 53.2329C72.3056 53.6957 69.694 54.1585 66.9688 54.6213C63.6759 55.1997 60.3831 55.6625 57.0902 56.1253C48.8012 57.398 39.1496 58.2078 38.1277 58.2078C36.3109 58.3235 34.3806 58.3235 32.5638 58.4392C32.1096 58.4392 31.5419 58.4392 30.9741 58.5549C30.8606 58.5549 30.747 58.5549 30.6335 58.5549H30.5199C29.9522 58.4392 28.8167 58.0921 27.6812 57.5137C22.2309 54.6213 19.2787 50.8033 17.8026 47.6795C18.1432 47.6795 18.4839 47.6795 18.8245 47.7952C19.96 47.7952 21.0955 47.7952 22.2309 47.5638C24.5019 47.101 26.5458 46.2912 28.5896 45.2499C30.5199 44.2086 32.3367 42.936 34.1535 41.6633C35.7432 40.5064 37.2193 39.2337 38.6954 37.9611C39.2631 37.4983 39.9444 36.9198 40.5122 36.3413C41.1935 35.6471 41.8747 34.953 42.6696 34.3745C43.4644 33.6803 44.2592 32.9861 45.1676 32.5234C45.9625 32.0606 46.7573 31.7135 47.6657 31.5978C48.4605 31.4821 49.2554 31.7135 49.9366 32.1763C50.6179 32.639 51.0721 33.3332 51.4128 34.0274C52.2076 35.6471 52.5482 37.3826 53.0024 39.0023C53.3431 40.275 53.6837 41.5476 54.1379 42.8203C54.7057 44.0929 55.3869 45.4813 56.636 46.2912C57.9985 47.2167 59.7018 46.754 61.0643 45.9441C62.9947 44.7871 64.0166 42.7046 65.1521 40.7378C65.6063 39.8122 65.9469 39.0023 66.4011 38.0768C66.9688 36.6884 67.5366 35.4158 68.2179 34.0274C68.8992 32.7547 69.5804 31.4821 70.4888 30.5565C71.0566 29.978 71.8514 29.3996 72.5327 29.8623C73.214 30.3251 73.7817 31.0193 74.2359 31.7135C74.8036 32.639 75.1443 33.5646 75.3714 34.6059C75.5985 35.5314 75.8256 36.457 76.0527 37.3826C76.6204 40.0436 76.8475 42.7046 77.0746 45.3656C77.1882 46.4069 77.1882 47.5638 77.1882 48.6051C76.9611 49.9934 76.8475 51.6132 76.734 53.0015Z" fill="black"/>
</svg>
