<svg width="1500" height="257" viewBox="0 0 1500 257" fill="none" xmlns="http://www.w3.org/2000/svg" preserveAspectRatio="none">
<path opacity="0.1" fill-rule="evenodd" clip-rule="evenodd" d="M993.108 224.915C994.986 224.879 996.846 224.076 997.767 223.291C1019.14 233.611 1040.21 230.901 1070.14 225.719C1072.67 233.338 1099.49 235.884 1104.12 232.727C1101.28 232.015 1095.72 235.19 1094.69 231.376C1111 225.693 1120.62 235.473 1134.56 229.069C1167.28 243.001 1206.59 236.87 1242.69 254.571C1245.47 252.983 1247.76 250.639 1249.55 246.77C1252.91 249.772 1262.19 244.991 1266.11 251.816C1351.07 250.166 1436.87 264.601 1538.45 250.36C1579.63 244.193 1632.77 227.059 1680.42 216.166C1746.29 201.085 1805.09 205.31 1839.64 135.632C1842.9 114.1 1849.1 97.8783 1857.24 83.919C1855.63 75.516 1857.09 77.7878 1857.87 70.872C1853.8 57.1498 1851.24 47.9986 1851.36 32.6616C1846.62 10.5181 1832.76 0.0529737 1817.74 0.344738C1769.39 1.28384 1709.66 17.7788 1670.86 25.4332C1667.32 34.7029 1657.32 28.7631 1651.27 31.1809C1630.93 4.73991 1592.59 32.3206 1569.59 32.7673C1571.47 32.7309 1572.44 34.2454 1572.96 36.5355C1553.43 44.5824 1523.91 47.456 1503.24 47.0908C1503.62 43.2497 1505.48 42.4468 1506.34 39.363C1499.27 37.9669 1488.45 37.4102 1481.97 41.3699C1488.54 41.2422 1494.66 41.8901 1499.43 44.8645C1485.78 43.5961 1464.38 52.4459 1457.15 44.1523C1452.56 48.8419 1430.53 50.8032 1421.09 48.6863C1426.04 39.3893 1443.12 46.725 1449.04 38.9425C1435.43 39.2069 1421.82 39.4713 1409.18 41.2503C1408.57 35.1282 1405.35 38.2577 1409 33.5863C1337.54 9.67198 1252.84 22.8182 1186.85 32.5342C1190.6 32.4612 1194.38 33.1547 1193.77 27.0326C1182 25.7278 1176.81 25.0617 1167.01 27.5523C1171.78 30.5267 1173.13 28.2002 1177.46 32.7165C1168.09 33.6652 1160.67 37.6431 1155.49 36.977C1156.62 45.3891 1152.9 46.9949 1150.16 50.1152C1149.65 48.5915 1149.16 47.8342 1147.77 48.628C1149.02 41.703 1148.59 43.2449 1146.66 40.9822C1147.44 34.0664 1152.87 45.4621 1151.26 37.0591C1142.34 37.2323 1142.43 41.0643 1136.21 35.818C1135.83 39.6591 1137.7 39.6227 1138.68 41.1372C1130.23 41.3013 1119.85 39.2027 1116.74 46.9305C1119.95 43.8011 1116.6 40.7994 1118.87 37.6882C1124.98 37.5697 1133.06 42.013 1133.86 35.8636C1094.86 35.0876 1042.34 38.4079 991.249 42.4673C1002.12 45.3232 1002.93 39.9402 1012.46 45.889L1012.58 51.2538C1009.37 54.3832 1006.92 49.8304 999.91 51.5C997.111 52.3211 1004.78 59.0728 999.184 60.715C995.358 57.7223 999.928 52.2664 995.686 51.5821C992.94 54.7023 998.174 57.6676 993.462 56.9924C989.619 53.2334 985.899 54.8391 973.659 53.5434L973.871 62.7401C982.825 64.0997 980.531 66.4445 985.641 64.045C982.55 72.5392 973.18 73.4879 976.289 65.7601C974.048 70.4041 970.85 74.2999 968.344 67.4479C969.212 64.3641 973.995 68.1049 972.915 61.992C972.357 58.1691 969.487 55.9246 971.294 52.8226C961.232 64.5191 943.945 47.9866 930.244 44.419C926.665 52.1559 901.176 46.5171 899.768 46.5445C893.666 46.663 883.932 52.2192 875.483 52.3833C859.523 52.6933 839.924 37.7392 839.339 53.0854C823.565 41.1239 813.07 54.3624 794.533 44.7548C796.862 43.9428 802.096 46.9081 802.478 43.067C800.077 40.8134 796.792 40.8772 797.571 33.9614C781.036 29.6821 758.735 40.0829 746.237 47.9931C750.046 50.2193 748.983 44.8728 750.843 44.0699C750.462 47.911 752.34 47.8746 753.314 49.3891C742.606 53.4308 713.104 57.0708 703.814 41.1497C711.829 42.5275 725.947 43.7868 732.014 42.1354C732.554 45.1919 726.505 47.6096 729.843 49.845C734.086 50.5293 738.081 40.4841 742.482 48.066C741.367 40.4203 747.229 50.2741 747.052 42.6101C670.797 34.8904 581.186 18.2292 493.026 23.7752C493.983 24.5234 495.373 23.7297 495.408 25.2625C487.083 30.7913 472.284 20.3444 467.209 24.2767C469.574 24.9975 475.118 21.0561 474.338 27.9719C473.364 26.4574 466.739 24.2858 466.358 28.1269C469.157 27.3058 471.54 28.793 471.176 33.4005C463.736 36.612 455.774 37.5334 447.794 37.6884C447.254 34.6319 449.566 33.0535 447.671 32.3236C446.386 37.7157 431.206 31.1099 433.677 36.4291C436.511 37.1408 442.073 33.9658 443.1 37.7796C421.525 38.9654 406.416 35.4252 393.901 42.5689C389.411 31.155 374.656 42.9427 370.254 35.3608C373.053 34.5397 375.365 32.9613 379.607 33.6457C381.308 25.9452 373.505 33.7642 373.85 28.3903C380.785 23.6551 389.881 31.1459 393.477 24.1754C391.13 24.221 395.178 16.4749 392.238 11.1649C372.089 13.0897 349.212 18.9012 330.453 20.0323C332.49 26.8934 325.519 30.0958 324.997 27.8057C327.291 25.4609 327.707 23.1526 324.82 20.1417C323.589 27.8331 318.266 21.0358 322.685 29.3841L317.991 29.4753C317.921 26.4097 322.438 18.6545 317.779 20.2785C315.644 29.5209 291.944 20.0136 284.106 26.2998C289.703 24.6575 285.585 29.338 287.48 30.0679C294.468 27.632 300.482 23.6814 315.644 29.5209C311.402 28.8365 305.353 31.2542 302.935 28.2342C304.555 37.4037 318.859 26.3915 320.48 35.5609C309.214 35.7797 303.288 43.5622 294.751 39.8943C296.628 39.8578 298.993 40.5787 299.41 38.2703C283.069 42.4214 264.966 31.272 261.981 44.3645C257.057 34.4925 253.045 43.7714 251.442 35.3683C244.923 37.7952 243.586 40.8881 237.36 35.6419C236.456 37.1929 235.101 39.5194 234.198 41.0705C233.064 32.6583 223.959 45.103 222.339 35.9336C223.747 35.9063 230.788 35.7695 226.997 34.3097C219.035 35.2311 210.551 33.8624 204.847 30.9062C207.176 30.0942 216.617 32.2111 212.792 29.2184C210.427 28.4976 205.334 31.6635 204.776 27.8406C206.636 27.0378 204.254 25.5505 203.749 24.0269C210.808 24.6565 207.381 18.5892 213.899 16.1623C214.041 22.2935 211.26 23.881 209.453 26.983C220.178 23.7078 213.173 25.3773 214.75 12.3121C206.682 8.63511 199.968 2.63157 187.817 5.16782C187.108 15.1492 174.992 19.2183 171.476 9.31892C170.901 4.72965 178.083 10.7241 176.046 3.86297C171.893 7.01061 168.988 3.23333 165.755 5.59635C165.879 10.9611 167.721 9.39186 165.932 13.2603C156.685 19.5738 156.72 21.1066 145.021 22.8674C148.617 15.8969 125.687 19.4092 127.617 21.6719C156.41 28.0133 170.82 21.5995 196.743 25.6964C197.301 29.5193 201.198 35.5775 196.991 36.426C194.644 36.4716 194.538 31.8732 194.432 27.2748C167.542 42.3652 145.959 22.8491 120.771 30.2391C122.648 30.2026 124.978 29.3906 125.5 31.6807C116.147 33.3958 115.236 14.245 105.538 21.3341C109.709 18.9528 113.189 27.3194 111.347 28.8886C105.697 28.2316 97.8228 32.985 103.279 25.2116C95.8038 26.8903 91.4201 20.0748 89.2321 27.0179C91.1274 27.7479 96.2202 24.582 96.3085 28.414C90.277 31.5981 77.6031 31.8443 74.1582 25.0105C76.5228 25.7313 83.1829 29.4357 83.5109 23.2954C72.2805 25.047 65.3377 9.08029 60.5985 27.5741C56.3385 26.1234 48.4646 30.8768 47.8362 23.9883C53.9031 22.337 52.5126 23.1307 59.5713 23.7604C60.7674 14.5362 46.4633 25.5485 51.4146 16.2514C35.0739 20.4025 19.0257 16.8805 6.85657 18.6504C8.75185 19.3803 12.4541 17.0081 11.639 22.3912C1.76381 21.8162 -6.99578 28.887 -11.955 17.4823C-12.8761 18.2669 -16.0029 25.2283 -16.5606 21.4054C-19.4831 16.8617 -14.7183 19.8362 -15.7985 13.7232C-21.9008 13.8417 -19.8464 21.4692 -22.1404 23.814C-53.2272 19.8174 -82.6936 24.9902 -117.261 12.627C-114.931 11.815 -109.697 14.7803 -109.316 10.9392C-116.393 9.54319 -130.147 3.67642 -136.072 11.4589C-133.185 14.4698 -123.017 7.37165 -120.928 16.5319C-144.938 13.9313 -185.307 14.7155 -212.169 10.6368C-137.632 25.2905 -56.0083 21.4049 13.7817 33.8506C-5.37548 38.0565 -29.0932 27.7828 -44.3361 38.8132C-43.2559 44.9262 -32.6716 35.5197 -33.3984 44.7347C-39.5713 41.7876 -49.8275 45.0538 -55.5488 41.3312C-56.0888 38.2747 -51.4655 35.118 -50.89 39.7073C-59.3217 40.6378 -48.0029 42.7181 -45.2218 41.1306C-45.8327 35.0086 -49.1185 35.0724 -48.7198 31.9977C-55.2208 35.1909 -66.1054 31.5686 -70.7818 32.4262C-69.8076 33.9408 -72.1193 35.5192 -71.5438 40.1084C-83.8544 35.7471 -106.227 43.0823 -122.939 31.1391C-107.9 31.6137 -89.0532 34.3146 -80.6039 34.1505C-94.8274 28.2928 -112.7 27.1065 -128.731 24.3509C-128.031 34.305 -130.555 26.6866 -132.016 24.4147C-133.753 30.5824 -127.615 31.9966 -130.866 33.5933C-133.664 34.4144 -135.108 32.9089 -135.648 29.8525C-133.77 29.816 -132.867 28.265 -133.425 24.4421C-140.953 23.8216 -135.595 32.1516 -137.907 33.73C-156.7 33.3283 -158.02 37.1877 -170.677 38.2002C-177.46 29.1311 -204.04 37.3148 -218.52 40.663C-218.574 38.3638 -218.139 36.8219 -217.705 35.28C-224.817 32.3512 -235.543 35.6265 -242.203 31.9221C-242.097 36.5205 -241.991 41.1189 -244.338 41.1645C-243.523 35.7815 -260.997 31.5204 -266.488 37.761C-260.262 43.0073 -246.18 42.7337 -232.444 47.8341C-237.067 50.9909 -249.289 50.4616 -252.123 49.7499C-253.824 57.4503 -246.021 49.6313 -246.367 55.0052C-250.574 55.8537 -259.979 55.2696 -263.77 53.8098C-263.424 48.4359 -254.816 55.1693 -254.47 49.7954C-258.659 51.4103 -259.235 46.821 -262.485 48.4176C-275.904 57.1124 -299.303 60.6339 -306.99 53.1158C-306.433 56.9387 -308.31 56.9751 -307.753 60.798C-295.929 64.402 -288.906 63.4989 -276.126 67.8511C-280.802 68.7087 -294.415 68.9731 -300.57 66.7924C-300.951 70.6335 -299.073 70.597 -298.099 72.1116C-300.464 71.3908 -305.557 74.5567 -306.115 70.7338C-304.237 70.6973 -301.872 71.4181 -301.456 69.1098C-306.185 67.6682 -311.349 67.7685 -315.503 70.9162C-314.511 73.1971 -310.809 70.825 -310.72 74.657C-321.464 77.1659 -331.445 71.9926 -337.388 79.0087C-341.789 71.4267 -350.584 76.9648 -354.721 80.8788C-347.556 86.1068 -338.778 79.8024 -332.482 88.1142C-338.637 85.9336 -338.496 92.0648 -342.72 92.1468C-343.031 99.0535 -336.618 92.0283 -335.591 95.842C-335.99 98.9167 -341.224 95.9514 -341.135 99.7834C-339.24 100.513 -335.086 97.3657 -335.467 101.207C-350.294 109.929 -336.663 110.431 -333.155 99.6284C-320.269 108.579 -300.696 102.065 -285.915 111.745C-288.279 111.025 -288.209 114.09 -289.112 115.641C-289.165 113.342 -289.236 110.276 -290.175 110.295C-289.98 118.725 -298.5 115.824 -300.466 112.028C-298.119 111.982 -288.696 113.333 -292.522 110.34C-297.703 109.674 -301.423 111.28 -304.168 114.4C-304.221 112.101 -304.292 109.035 -305.231 109.054C-312.963 119.938 -320.34 105.513 -324.91 110.969C-316.461 110.805 -328.613 113.342 -323.848 116.316C-319.136 116.991 -311.174 116.07 -302.636 119.738C-306.755 124.418 -323.777 119.382 -329.392 120.257C-332.209 120.312 -327.878 124.828 -329.18 129.454C-333.476 126.471 -336.797 125.002 -339.507 129.655C-338.727 122.739 -344.29 125.914 -344.237 128.213C-346.008 132.848 -339.543 128.122 -338.48 133.468C-344.166 131.279 -347.381 134.408 -354.909 133.788C-363.846 133.194 -390.725 128.349 -373.721 132.619C-347.709 140.548 -314.921 136.845 -290.247 147.866C-300.521 150.366 -315.285 141.452 -319.386 146.899C-316.1 146.835 -312.362 145.996 -312.256 150.594C-315.073 150.649 -316.1 146.835 -316.915 152.218C-311.752 152.118 -306.119 152.008 -304.117 157.337C-312.531 159.034 -323.956 152.355 -327.588 157.793C-318.146 159.909 -301.053 168.012 -288.92 164.709C-288.796 170.074 -286.954 168.504 -288.743 172.373C-278.398 172.939 -269.843 177.373 -260.402 179.49C-277.3 179.818 -282.101 175.311 -300.425 174.9C-303.711 174.964 -290.497 177.774 -287.627 180.019C-290.444 180.073 -293.243 180.894 -294.58 183.987C-283.837 181.478 -273.227 193.54 -261.633 187.181C-263.529 186.451 -267.683 189.599 -267.302 185.758C-261.633 187.181 -258.87 184.827 -255.531 187.063C-256.346 192.446 -259.251 188.668 -260.137 190.986C-253.946 194.699 -244.142 192.209 -240.21 199.8C-251.059 197.71 -265.734 192.628 -275.539 195.119C-257.994 202.445 -227.066 199.544 -202.862 210.575C-213.623 212.318 -218.945 205.52 -228.679 211.077C-206.493 216.013 -177.39 215.448 -154.647 224.207C-165.895 225.192 -173.077 219.198 -185.246 220.967C-188.461 224.097 -179.109 222.382 -177.231 222.345C-96.1753 234.572 -30.494 231.763 47.3918 228.717C44.5577 228.005 38.9955 231.18 37.9684 227.366C52.9716 226.308 61.4563 227.677 76.4596 226.619C77.6911 218.927 71.6948 223.644 70.65 219.064C118.741 227.331 163.017 212.669 209.841 227.095L102.312 227.65C96.6617 226.993 99.5664 230.77 103.286 229.164L113.613 228.964C283.245 233.336 458.439 234.534 637.547 242.556C658.342 248.286 687.304 241.59 713.803 250.276C715.627 247.94 717.434 244.838 719.259 242.502C767.378 231.6 819.543 253.589 879.538 248.59C882.753 245.461 884.525 240.826 888.714 239.211C909.58 248.007 931.377 236.082 957.628 234.039C956.671 233.291 955.281 234.084 955.246 232.552C965.068 230.827 977.795 232.88 977.184 226.758C979.115 229.021 997.023 231.74 993.108 224.915ZM595.957 231.096C603.291 223.286 605.779 229.372 610.978 230.804C610.614 235.412 603.45 230.184 604.06 236.306C591.245 230.421 577.774 236.816 566.42 233.203L547.643 233.568C550.823 228.906 558.892 232.583 564.037 231.716C571.548 231.57 593.034 226.552 595.957 231.096ZM220.027 37.512L214.394 37.6214L214.27 32.2567C216.183 33.753 220.373 32.1381 220.027 37.512ZM1257.44 222.081C1289.2 214.564 1332.05 219.865 1374.41 223.643C1326.72 233.004 1301.63 224.29 1257.44 222.081ZM884.499 219.358C952.404 211.138 1004.72 219.323 1072.77 217.234C1077.96 218.667 1071.74 213.421 1075.02 213.357C1076.5 216.395 1079.82 217.864 1086.85 216.961C1033.98 225.655 947.435 219.669 884.499 219.358ZM1113.71 221.039L1111.36 221.085C1106.69 221.943 1105.69 219.662 1103.35 219.707C1082.62 217.043 1098.64 219.032 1110.3 215.738C1109.45 219.589 1115.43 214.105 1113.71 221.039ZM1061.77 209.014C1102.65 209.753 1132.06 202.281 1161.41 212.445C1127.69 216.168 1089.61 214.607 1061.77 209.014ZM934.531 209.952C962.208 208.647 1008.17 206.221 1036.48 211.805C1009.34 216.166 960.853 210.974 934.531 209.952ZM895.987 208.4C898.803 208.345 895.394 203.044 893.551 204.614C904.259 200.572 894.649 211.493 907.722 208.172C907.2 205.882 904.87 206.694 902.993 206.731C903.861 203.647 916.517 202.634 912.416 208.081C919.909 207.169 923.629 205.563 933.504 206.138C930.412 214.632 921.007 214.048 907.863 214.303C890.947 213.865 864.953 206.703 895.987 208.4ZM882.808 207.123C873.837 204.997 865.423 206.694 853.67 206.155C862.5 202.15 873.243 199.641 882.808 207.123ZM30.3165 221.381C-10.9204 225.249 -75.4762 215.768 -134.692 213.852C-72.7305 212.648 17.9883 216.253 68.7724 219.1C49.5268 219.474 42.5211 221.144 24.1789 219.967C24.2673 223.799 28.4212 220.651 30.3165 221.381ZM852.678 203.874C846.699 209.357 832.945 203.491 828.304 205.881C834.212 197.332 845.69 206.31 852.678 203.874ZM745.22 207.495C745.459 197.523 756.556 210.342 755.423 201.93C758.345 206.473 759.249 204.922 763.438 203.307C763.11 209.448 749.878 205.871 745.22 207.495ZM-56.8238 210.039C-60.632 207.813 -61.0308 210.887 -66.2119 210.221C-67.3098 203.342 -60.5967 209.345 -63.1381 200.961C-60.8088 200.149 -60.7381 203.214 -60.6674 206.28C-57.851 206.225 -56.4251 206.964 -56.8238 210.039ZM-301.026 148.843C-303.285 152.72 -309.041 147.465 -312.796 147.538C-310.104 142.118 -303.878 147.364 -301.026 148.843ZM952.932 91.5162C957.467 84.5275 967.36 85.8688 976.279 85.6956C971.931 80.4129 960.824 87.5292 956.475 82.2465C974.676 77.2926 980.433 82.5479 994.967 81.4989C994.55 83.8072 991.698 82.3291 991.769 85.3947C998.482 91.3982 1006.67 79.7381 1013.92 88.7981C984.817 89.3634 980.14 90.221 952.932 91.5162ZM905.815 84.764C904.548 90.9226 891.193 81.9811 879.059 85.2837C880.884 82.9481 883.665 81.3606 884.515 77.5103C890.724 81.9902 899.713 84.8825 906.613 78.6146C907.135 80.9047 907.188 83.2039 912.334 82.3372C912.874 85.3937 911.466 85.421 911.519 87.7202C915.292 88.4136 917.116 86.078 919.463 86.0324C919.499 87.5652 919.968 87.5561 920.437 87.547C938.292 87.9669 915.814 90.7037 908.738 89.3077C911.43 83.8882 905.452 89.3715 905.815 84.764ZM1419.65 67.8827C1417.74 66.3864 1413.55 68.0013 1413.9 62.6274C1417.24 64.8627 1418.99 59.4615 1419.65 67.8827ZM1419.57 64.0507C1421.82 60.1732 1427.6 66.1949 1432.24 63.8046C1430.52 70.7386 1421.53 67.8463 1419.57 64.0507ZM914.779 66.1881C919.607 51.5263 928.897 67.4474 941.535 65.6684C941.482 63.3692 939.153 64.1812 938.214 64.1995C940.437 58.7891 946.663 64.0353 949.949 63.9715C945.414 70.9603 933.21 71.1973 930.269 65.8873C928.409 66.6901 930.792 68.1773 930.393 71.252L924.76 71.3614C925.177 69.0531 926.08 67.5021 927.958 67.4656C921.82 66.0514 920.987 70.668 913.964 71.5711C915.859 72.3011 917.02 61.5442 914.779 66.1881ZM1414.75 58.7771C1423.04 51.7155 1432.44 52.2995 1443.76 54.3799C1436.39 60.6569 1426.93 57.7737 1414.75 58.7771ZM899.758 66.4799C895.604 69.6275 884.338 69.8464 880.043 66.8628C885.658 65.987 892.664 64.3175 899.758 66.4799ZM875.314 65.4212C873.994 69.2805 867.351 66.3426 863.614 67.1819C864.934 63.3226 871.576 66.2606 875.314 65.4212ZM862.206 67.2093C856.068 65.795 853.704 65.0742 848.088 65.95C848.434 60.5761 859.266 61.8992 862.206 67.2093ZM840.959 62.2548C837.921 73.0482 828.073 53.3042 832.944 60.877C821.741 43.4596 778.705 71.1314 768.423 52.9294C790.069 54.8091 813.052 53.596 838.453 55.4028C839.028 59.9921 833.272 54.7367 835.291 60.8314C836.699 60.8041 837.115 58.4958 840.959 62.2548ZM1094.14 44.3026C1081.79 38.4085 1104.88 41.7937 1104.34 38.7372C1107.17 39.4489 1103.04 43.363 1103.58 46.4194C1099.37 47.2679 1097.89 44.2296 1095.51 42.7424C1093.36 51.2184 1100.26 44.9505 1099.01 51.8754C1095.83 56.5376 1091.03 52.0304 1087.27 52.1033C1089.58 50.5249 1090.38 44.3755 1086.16 44.4576C1084.75 44.4849 1085.72 45.9995 1086.19 45.9904C1086.28 49.8224 1081.05 46.8571 1079.19 47.6599C1078.82 52.2674 1085.72 45.9995 1084 52.9335C1075.95 50.0229 1066.65 54.0373 1059.6 53.4076C1064.69 50.2418 1068.41 48.636 1068.68 40.1966C1074.35 41.6199 1087.48 40.5982 1094.14 44.3026ZM907.526 57.1281C912.096 51.6722 919.226 55.3674 923.867 52.977C921.679 59.9202 910.342 57.0734 907.526 57.1281ZM1144.49 48.6918C1142.43 41.0643 1140.82 52.5967 1137.41 47.2958C1137.76 41.9219 1142.97 44.1208 1146.71 43.2814C1146.29 45.5897 1144.42 45.6262 1144.49 48.6918ZM89.5758 62.2813C91.365 58.4129 89.5227 59.9821 89.399 54.6174C90.9133 59.1884 98.1586 47.5466 95.0672 56.0407C97.8306 53.6868 100.107 50.5757 105.306 52.0082C102.144 57.4368 110.54 54.9735 111.115 59.5627C110.487 52.6743 121.841 56.2874 125.197 59.2892C111.691 64.152 104.597 61.9896 89.5758 62.2813ZM40.1646 57.8739C37.3305 57.1622 40.8284 66.2951 37.0025 63.3025C37.2951 55.6294 26.4281 52.7735 21.8578 58.2295C23.1423 52.8373 18.9706 55.2186 17.0754 54.4887C43.2029 47.0805 61.5804 49.7905 88.5486 58.4676C88.1145 60.0095 87.2111 61.5605 87.7335 63.8506C84.0136 65.4563 83.4735 62.3999 80.657 62.4546C81.0734 60.1463 82.9688 60.8762 82.9157 58.577C78.532 51.7615 78.9032 67.8558 72.7126 64.1424C76.2734 55.639 43.2461 69.3151 40.1646 57.8739ZM780.92 45.0192C782.727 41.9172 785.995 41.0869 790.22 41.0049C790.725 42.5285 791.699 44.0431 791.283 46.3514C789.041 50.9954 786.048 43.3861 780.92 45.0192ZM149.19 61.1234L143.557 61.2328C142.008 55.129 147.242 58.0943 149.102 57.2914L149.19 61.1234ZM170.19 55.3483C179.941 50.5585 197.397 54.0531 210.089 54.5733C199.886 60.1387 186.185 56.5711 170.19 55.3483ZM3.96741 56.2767C3.15232 61.6598 -2.08187 58.6945 -3.97715 57.9645C-4.04785 54.899 -3.14438 53.3479 -1.75384 52.5542C-2.72801 51.0396 -8.9363 46.5598 -7.38669 52.6636C-8.34315 51.9154 -9.31735 50.4009 -10.7079 51.1946C-9.87515 46.578 -7.58114 44.2332 -3.84357 43.3939C-3.80822 44.9267 -5.21643 44.954 -6.15525 44.9723C-1.87759 47.1894 0.593191 52.5086 3.96741 56.2767ZM-21.3274 59.0683C-18.6347 53.6488 -12.4441 57.3623 -7.28064 57.262C-8.07803 63.4114 -16.217 56.6688 -21.3274 59.0683ZM278.534 49.4102C266.834 51.1709 262.627 52.0194 247.987 48.47C257.322 45.9885 268.171 48.078 278.534 49.4102ZM179.436 49.0348C179.8 44.4273 171.368 45.3578 167.524 41.5988C174.025 38.4055 177.47 45.2393 186.336 42.7669C189.746 48.0678 177.887 42.931 179.436 49.0348ZM50.7488 48.4674C51.5992 44.6172 52.9367 41.5243 52.7953 35.3931C47.7379 40.0918 51.9626 40.0097 47.1624 35.5025C60.5985 27.5741 74.9634 39.5629 89.3735 33.1491C91.2865 34.6454 89.4442 36.2147 89.4972 38.5139C96.0866 39.1526 104.935 35.9138 109.248 39.6638C103.234 43.6143 99.3724 39.0888 92.8184 39.9829C91.5516 46.1414 96.609 41.4427 95.3422 47.6013C98.0703 43.7146 104.695 45.8861 109.389 45.7949C97.866 55.2196 69.5073 47.3363 50.7488 48.4674ZM-13.5243 51.2493C-25.1534 56.0756 -34.7535 47.0612 -16.8101 51.3131C-15.8536 52.0613 -14.9855 48.9775 -13.5243 51.2493ZM-65.4946 37.6907C-62.2088 37.6269 -58.9229 37.5631 -59.738 42.9461C-62.085 42.9917 -65.3709 43.0555 -65.4946 37.6907ZM-63.0239 43.0099C-62.9708 45.3091 -62.4838 46.0664 -61.9967 46.8236C-62.7941 52.9731 -70.8977 47.7633 -74.6706 47.0698C-70.552 42.3894 -68.6037 45.4185 -63.0239 43.0099ZM-223.853 53.8012C-229.281 42.4055 -242.054 58.7551 -223.853 53.8012V53.8012ZM41.3077 46.3506C34.2312 44.9545 31.4325 45.7757 23.9397 46.6879C26.597 39.7357 40.2805 42.5368 41.3077 46.3506ZM-213.826 40.5718C-207.724 40.4533 -207.689 41.9861 -202.091 40.3439C-201.011 46.4568 -214.154 46.7121 -213.826 40.5718ZM45.7543 35.5298C42.5038 37.1265 37.8097 37.2176 35.4273 35.7304C36.7118 30.3383 42.4331 34.0609 45.7543 35.5298ZM-220.832 42.2414C-223.649 42.2961 -224.658 39.2488 -226.553 38.5188C-226.155 35.4441 -218.644 35.2982 -220.832 42.2414ZM206.424 17.841L196.097 18.0416C195.504 12.6859 207.204 10.9252 206.424 17.841Z" fill="#91616D"/>
</svg>
